<?xml version="1.0" encoding="UTF-8"?>
<svg xmlns="http://www.w3.org/2000/svg" version="1.1" width="271px" height="146px" style="shape-rendering:geometricPrecision; text-rendering:geometricPrecision; image-rendering:optimizeQuality; fill-rule:evenodd; clip-rule:evenodd" xmlns:xlink="http://www.w3.org/1999/xlink">
<g><path style="opacity:1" fill="none" d="M -0.5,-0.5 C 89.8333,-0.5 180.167,-0.5 270.5,-0.5C 270.5,48.1667 270.5,96.8333 270.5,145.5C 180.167,145.5 89.8333,145.5 -0.5,145.5C -0.5,96.8333 -0.5,48.1667 -0.5,-0.5 Z"/></g>
<g><path style="opacity:1" fill="#d9dbf7" d="M 223.5,28.5 C 216.142,28.4183 208.809,28.7516 201.5,29.5C 201.787,27.8793 202.787,26.8793 204.5,26.5C 210.964,27.1306 217.297,27.7973 223.5,28.5 Z"/></g>
<g><path style="opacity:1" fill="#685ece" d="M 79.5,30.5 C 75.4862,30.3345 71.4862,30.5012 67.5,31C 70.707,31.5717 72.3737,33.405 72.5,36.5C 70.6527,33.8285 67.986,32.8285 64.5,33.5C 64.4606,32.4168 64.1272,31.4168 63.5,30.5C 59.8927,29.5108 56.226,29.1774 52.5,29.5C 61.6298,26.6525 70.6298,26.9858 79.5,30.5 Z"/></g>
<g><path style="opacity:1" fill="#5c52c0" d="M 111.5,30.5 C 113.473,29.8373 115.639,29.5039 118,29.5C 121.477,29.3275 124.644,29.9942 127.5,31.5C 122.195,30.8058 116.862,30.4724 111.5,30.5 Z"/></g>
<g><path style="opacity:1" fill="#6359c0" d="M 161.5,30.5 C 155.797,30.3748 150.13,30.7081 144.5,31.5C 147.526,29.9814 150.859,29.3148 154.5,29.5C 157.025,29.5034 159.359,29.8367 161.5,30.5 Z"/></g>
<g><path style="opacity:1" fill="#5950cd" d="M 223.5,28.5 C 229.161,28.8325 234.495,30.3325 239.5,33C 242.118,35.1057 244.118,37.6057 245.5,40.5C 243.264,38.1067 240.597,36.2734 237.5,35C 235.765,34.3486 234.098,34.5153 232.5,35.5C 231.548,33.9547 231.215,32.288 231.5,30.5C 224.841,29.7781 218.175,29.6114 211.5,30C 211.167,30.3333 210.833,30.6667 210.5,31C 215.222,31.6335 219.555,32.8001 223.5,34.5C 217.004,32.7274 211.004,33.7274 205.5,37.5C 205.238,36.0222 205.571,34.6888 206.5,33.5C 207.609,34.5896 208.609,34.5896 209.5,33.5C 208.449,32.1152 207.116,31.1152 205.5,30.5C 201.214,33.0383 196.547,34.3716 191.5,34.5C 194.705,32.5361 198.038,30.8695 201.5,29.5C 208.809,28.7516 216.142,28.4183 223.5,28.5 Z"/></g>
<g><path style="opacity:1" fill="#574bd8" d="M 79.5,30.5 C 84.9564,31.5612 88.9564,34.5612 91.5,39.5C 88.7382,36.4135 85.4049,34.0802 81.5,32.5C 80.2519,33.0402 79.0852,33.7069 78,34.5C 75.9239,37.9782 74.4239,41.6448 73.5,45.5C 74.1715,50.3424 75.0048,55.0091 76,59.5C 75.6667,59.8333 75.3333,60.1667 75,60.5C 71.8508,48.7764 70.5174,48.7764 71,60.5C 70.6924,59.6919 70.1924,59.0253 69.5,58.5C 67.6677,62.7168 65.6677,66.7168 63.5,70.5C 67.3315,59.3465 70.3315,48.0132 72.5,36.5C 72.3737,33.405 70.707,31.5717 67.5,31C 71.4862,30.5012 75.4862,30.3345 79.5,30.5 Z"/></g>
<g><path style="opacity:1" fill="#5146e4" d="M 161.5,30.5 C 162.609,30.5569 163.609,30.8902 164.5,31.5C 163.923,34.5497 165.09,36.5497 168,37.5C 168.667,42.8333 168.667,48.1667 168,53.5C 166.681,55.2495 166.181,57.2495 166.5,59.5C 164.144,67.5604 161.811,75.5604 159.5,83.5C 158.25,83.5774 157.417,84.244 157,85.5C 155.648,88.7201 154.814,92.0534 154.5,95.5C 153.127,95.3433 151.793,95.51 150.5,96C 152.25,97.7542 152.917,99.9208 152.5,102.5C 151.325,108.55 153.658,111.55 159.5,111.5C 160.551,112.222 161.218,113.222 161.5,114.5C 161.158,115.338 160.492,115.672 159.5,115.5C 153.532,117.306 147.865,116.639 142.5,113.5C 141.251,115.475 139.751,115.809 138,114.5C 137.667,112.833 137.333,111.167 137,109.5C 136.667,110.167 136.333,110.833 136,111.5C 135.51,110.207 135.343,108.873 135.5,107.5C 134.5,107.5 133.5,107.5 132.5,107.5C 132.656,104.934 132.322,102.434 131.5,100C 132.232,98.2345 133.565,97.0678 135.5,96.5C 134.675,95.6143 133.675,95.281 132.5,95.5C 134.781,86.5895 136.781,77.5895 138.5,68.5C 141.23,60.6407 143.563,52.6407 145.5,44.5C 145.43,43.2284 145.097,42.0617 144.5,41C 142.866,40.5065 141.199,40.3398 139.5,40.5C 138.624,40.6309 137.957,40.2975 137.5,39.5C 139.934,37.079 141.934,34.4123 143.5,31.5C 143.833,31.5 144.167,31.5 144.5,31.5C 150.13,30.7081 155.797,30.3748 161.5,30.5 Z"/></g>
<g><path style="opacity:1" fill="#695cce" d="M 164.5,31.5 C 169.173,34.4896 171.173,38.823 170.5,44.5C 170.548,49.9838 169.214,54.9838 166.5,59.5C 166.181,57.2495 166.681,55.2495 168,53.5C 168.667,48.1667 168.667,42.8333 168,37.5C 165.09,36.5497 163.923,34.5497 164.5,31.5 Z"/></g>
<g><path style="opacity:1" fill="#5348db" d="M 52.5,29.5 C 56.226,29.1774 59.8927,29.5108 63.5,30.5C 64.1272,31.4168 64.4606,32.4168 64.5,33.5C 60.8945,33.7986 57.5612,34.9653 54.5,37C 52.2968,39.3722 49.9635,41.5389 47.5,43.5C 46.01,40.1078 43.3434,38.7745 39.5,39.5C 39.5,38.5 39.5,37.5 39.5,36.5C 38.0222,36.238 36.6888,36.5713 35.5,37.5C 34.9047,40.975 33.5713,43.975 31.5,46.5C 33.1992,46.3398 34.8659,46.5065 36.5,47C 34.5273,47.4955 32.5273,47.6621 30.5,47.5C 30.719,48.675 30.3857,49.675 29.5,50.5C 28.2941,48.5159 28.2941,46.5159 29.5,44.5C 29.0431,43.7025 28.3764,43.3691 27.5,43.5C 29.8061,41.8606 31.8061,39.8606 33.5,37.5C 39.0097,32.9128 45.343,30.2461 52.5,29.5 Z"/></g>
<g><path style="opacity:1" fill="#5449da" d="M 205.5,37.5 C 195.518,47.752 193.352,59.4187 199,72.5C 201.205,75.0402 203.705,77.2068 206.5,79C 200.175,79.4995 193.842,79.6662 187.5,79.5C 186.694,78.2719 185.694,77.2719 184.5,76.5C 186.884,76.5567 189.218,76.2234 191.5,75.5C 192.672,75.9186 193.672,76.5853 194.5,77.5C 194.833,77 195.167,76.5 195.5,76C 193.907,72.7385 191.907,69.7385 189.5,67C 190.071,65.7949 190.738,64.6283 191.5,63.5C 192.59,64.3914 192.59,65.3914 191.5,66.5C 193.074,67.9842 194.407,69.6508 195.5,71.5C 195.833,71.1667 196.167,70.8333 196.5,70.5C 193.596,62.3188 193.929,54.3188 197.5,46.5C 197,46.1667 196.5,45.8333 196,45.5C 194.068,47.1779 191.902,47.6779 189.5,47C 193.143,45.1968 195.476,42.3635 196.5,38.5C 193.282,38.3491 192.949,37.5158 195.5,36C 192.458,35.5204 190.125,36.687 188.5,39.5C 187.549,38.6744 186.549,38.5078 185.5,39C 182.922,41.0737 180.922,43.5737 179.5,46.5C 178.311,47.4287 176.978,47.762 175.5,47.5C 179.618,41.719 184.952,37.3857 191.5,34.5C 196.547,34.3716 201.214,33.0383 205.5,30.5C 207.116,31.1152 208.449,32.1152 209.5,33.5C 208.609,34.5896 207.609,34.5896 206.5,33.5C 205.571,34.6888 205.238,36.0222 205.5,37.5 Z"/></g>
<g><path style="opacity:1" fill="#6156cb" d="M 102.5,35.5 C 102.415,36.9953 103.081,37.9953 104.5,38.5C 105.736,37.7542 107.07,37.4208 108.5,37.5C 109.167,43.1667 109.833,48.8333 110.5,54.5C 108.336,54.7215 106.67,55.7215 105.5,57.5C 106.288,53.1318 107.288,48.7985 108.5,44.5C 108.139,40.5597 106.139,39.5597 102.5,41.5C 99.38,44.7571 97.0467,48.4238 95.5,52.5C 95.8333,50.5 96.1667,48.5 96.5,46.5C 95.1779,46.67 94.0113,46.3366 93,45.5C 92.4954,43.4817 91.9954,41.4817 91.5,39.5C 93.309,41.0991 94.6424,43.0991 95.5,45.5C 97.3633,41.75 99.6966,38.4167 102.5,35.5 Z"/></g>
<g><path style="opacity:1" fill="#5e54cd" d="M 143.5,31.5 C 141.934,34.4123 139.934,37.079 137.5,39.5C 137.957,40.2975 138.624,40.6309 139.5,40.5C 137.576,42.695 135.909,45.0283 134.5,47.5C 134.539,45.6412 133.706,44.3079 132,43.5C 131.637,40.456 131.137,37.456 130.5,34.5C 132.694,36.2214 133.861,38.5547 134,41.5C 136.668,37.6659 139.835,34.3325 143.5,31.5 Z"/></g>
<g><path style="opacity:1" fill="#5046e4" d="M 245.5,40.5 C 246.167,40.5 246.5,40.8333 246.5,41.5C 248.634,51.4399 248.967,61.4399 247.5,71.5C 245.397,89.2251 237.064,103.058 222.5,113C 217.686,115.41 212.686,117.244 207.5,118.5C 200.8,118.83 194.134,118.497 187.5,117.5C 194.124,116.931 198.791,113.598 201.5,107.5C 203.352,106.911 205.185,106.244 207,105.5C 207.195,103.793 207.195,102.126 207,100.5C 210.241,99.7032 212.408,97.7032 213.5,94.5C 212.5,94.5 211.5,94.5 210.5,94.5C 211.414,92.3359 212.581,90.3359 214,88.5C 214.333,89.8333 214.667,91.1667 215,92.5C 216.829,90.2701 216.662,88.1035 214.5,86C 216.508,82.4691 217.508,78.6358 217.5,74.5C 219.499,72.2021 221.499,69.8688 223.5,67.5C 222.607,64.9159 222.274,62.2492 222.5,59.5C 222.833,58.8333 223.167,58.1667 223.5,57.5C 224.315,56.5707 225.148,55.5707 226,54.5C 226.667,48.1667 226.667,41.8333 226,35.5C 225.329,34.7476 224.496,34.4142 223.5,34.5C 219.555,32.8001 215.222,31.6335 210.5,31C 210.833,30.6667 211.167,30.3333 211.5,30C 218.175,29.6114 224.841,29.7781 231.5,30.5C 231.215,32.288 231.548,33.9547 232.5,35.5C 234.098,34.5153 235.765,34.3486 237.5,35C 240.597,36.2734 243.264,38.1067 245.5,40.5 Z"/></g>
<g><path style="opacity:1" fill="#5145e8" d="M 47.5,43.5 C 46.5041,43.4142 45.6708,43.7476 45,44.5C 45.1975,49.1139 43.0308,51.1139 38.5,50.5C 38.1992,54.2474 38.8658,57.7474 40.5,61C 40.0548,62.4469 39.3881,63.7803 38.5,65C 40.4593,67.2936 40.7926,69.7936 39.5,72.5C 37.1459,70.7539 36.1459,68.4206 36.5,65.5C 35.5,65.5 34.5,65.5 33.5,65.5C 34.2323,68.9807 35.5657,72.314 37.5,75.5C 34.5,76.8333 31.5,76.8333 28.5,75.5C 31.1329,74.6822 32.2995,73.0155 32,70.5C 29.8881,71.2226 27.8881,72.2226 26,73.5C 24.5054,71.8368 22.672,70.8368 20.5,70.5C 20.5,69.8333 20.5,69.1667 20.5,68.5C 18.6657,58.7906 20.9991,50.4573 27.5,43.5C 28.3764,43.3691 29.0431,43.7025 29.5,44.5C 28.2941,46.5159 28.2941,48.5159 29.5,50.5C 30.3857,49.675 30.719,48.675 30.5,47.5C 32.5273,47.6621 34.5273,47.4955 36.5,47C 34.8659,46.5065 33.1992,46.3398 31.5,46.5C 33.5713,43.975 34.9047,40.975 35.5,37.5C 36.6888,36.5713 38.0222,36.238 39.5,36.5C 39.5,37.5 39.5,38.5 39.5,39.5C 43.3434,38.7745 46.01,40.1078 47.5,43.5 Z"/></g>
<g><path style="opacity:1" fill="#5045e5" d="M 184.5,76.5 C 181.002,76.5216 179.669,75.0216 180.5,72C 177.363,72.1078 175.03,70.9411 173.5,68.5C 172.617,63.8969 172.283,59.2303 172.5,54.5C 173.051,51.9439 174.051,49.6106 175.5,47.5C 176.978,47.762 178.311,47.4287 179.5,46.5C 180.922,43.5737 182.922,41.0737 185.5,39C 186.549,38.5078 187.549,38.6744 188.5,39.5C 190.125,36.687 192.458,35.5204 195.5,36C 192.949,37.5158 193.282,38.3491 196.5,38.5C 195.476,42.3635 193.143,45.1968 189.5,47C 191.902,47.6779 194.068,47.1779 196,45.5C 196.5,45.8333 197,46.1667 197.5,46.5C 193.929,54.3188 193.596,62.3188 196.5,70.5C 196.167,70.8333 195.833,71.1667 195.5,71.5C 194.407,69.6508 193.074,67.9842 191.5,66.5C 192.59,65.3914 192.59,64.3914 191.5,63.5C 190.738,64.6283 190.071,65.7949 189.5,67C 191.907,69.7385 193.907,72.7385 195.5,76C 195.167,76.5 194.833,77 194.5,77.5C 193.672,76.5853 192.672,75.9186 191.5,75.5C 189.218,76.2234 186.884,76.5567 184.5,76.5 Z"/></g>
<g><path style="opacity:1" fill="#6459ce" d="M 223.5,34.5 C 224.496,34.4142 225.329,34.7476 226,35.5C 226.667,41.8333 226.667,48.1667 226,54.5C 225.148,55.5707 224.315,56.5707 223.5,57.5C 224.478,52.7236 225.145,47.8902 225.5,43C 225.722,39.8524 225.055,37.019 223.5,34.5 Z"/></g>
<g><path style="opacity:1" fill="#6f62cc" d="M 246.5,41.5 C 251.436,51.3374 251.769,61.3374 247.5,71.5C 248.967,61.4399 248.634,51.4399 246.5,41.5 Z"/></g>
<g><path style="opacity:1" fill="#5d51c3" d="M 33.5,37.5 C 31.8061,39.8606 29.8061,41.8606 27.5,43.5C 20.9991,50.4573 18.6657,58.7906 20.5,68.5C 18.9532,66.1934 18.2865,63.5267 18.5,60.5C 18.297,56.5886 19.1303,52.9219 21,49.5C 22.9555,47.0888 24.7888,44.5888 26.5,42C 28.7343,40.2502 31.0676,38.7502 33.5,37.5 Z"/></g>
<g><path style="opacity:1" fill="#6e64cb" d="M 172.5,54.5 C 172.283,59.2303 172.617,63.8969 173.5,68.5C 172.883,68.3893 172.383,68.056 172,67.5C 171.186,62.9796 171.353,58.6463 172.5,54.5 Z"/></g>
<g><path style="opacity:1" fill="#5046e4" d="M 91.5,39.5 C 91.9954,41.4817 92.4954,43.4817 93,45.5C 94.0113,46.3366 95.1779,46.67 96.5,46.5C 96.1667,48.5 95.8333,50.5 95.5,52.5C 94.5,52.5 93.5,52.5 92.5,52.5C 92.5,54.5 92.5,56.5 92.5,58.5C 91.5,58.5 90.5,58.5 89.5,58.5C 89.5,57.5 89.5,56.5 89.5,55.5C 88.5,55.5 87.5,55.5 86.5,55.5C 87.1267,58.7339 87.1267,61.9006 86.5,65C 87.1667,66 87.8333,67 88.5,68C 87.3135,69.9468 85.9802,71.7801 84.5,73.5C 85.71,76.1405 85.71,78.8072 84.5,81.5C 83.6345,82.8507 82.6345,83.6841 81.5,84C 82.2865,86.0989 82.6199,88.2655 82.5,90.5C 81.0582,95.6842 79.3915,100.684 77.5,105.5C 75.9734,109.213 74.9734,113.213 74.5,117.5C 70.9062,116.574 67.2396,116.241 63.5,116.5C 61.005,113.807 58.8383,110.807 57,107.5C 56.4462,101.812 56.6129,96.1454 57.5,90.5C 59.7023,83.8931 61.7023,77.2265 63.5,70.5C 65.6677,66.7168 67.6677,62.7168 69.5,58.5C 70.1924,59.0253 70.6924,59.6919 71,60.5C 70.5174,48.7764 71.8508,48.7764 75,60.5C 75.3333,60.1667 75.6667,59.8333 76,59.5C 75.0048,55.0091 74.1715,50.3424 73.5,45.5C 74.4239,41.6448 75.9239,37.9782 78,34.5C 79.0852,33.7069 80.2519,33.0402 81.5,32.5C 85.4049,34.0802 88.7382,36.4135 91.5,39.5 Z"/></g>
<g><path style="opacity:1" fill="#5f53cb" d="M 222.5,59.5 C 222.274,62.2492 222.607,64.9159 223.5,67.5C 221.499,69.8688 219.499,72.2021 217.5,74.5C 218.997,69.3411 220.664,64.3411 222.5,59.5 Z"/></g>
<g><path style="opacity:1" fill="#5046e4" d="M 111.5,30.5 C 116.862,30.4724 122.195,30.8058 127.5,31.5C 128.833,32.1667 129.833,33.1667 130.5,34.5C 131.137,37.456 131.637,40.456 132,43.5C 133.706,44.3079 134.539,45.6412 134.5,47.5C 128.138,67.9013 121.471,88.2346 114.5,108.5C 112.72,109.99 112.054,111.99 112.5,114.5C 110.213,114.276 108.047,113.609 106,112.5C 105.5,112.833 105,113.167 104.5,113.5C 105.5,114.333 106.5,115.167 107.5,116C 103.474,117.337 100.474,116.17 98.5,112.5C 97.675,111.614 96.675,111.281 95.5,111.5C 94.4793,105.87 94.3127,100.204 95,94.5C 95.8928,95.7112 96.7261,95.7112 97.5,94.5C 96.9781,93.3926 96.6448,92.2259 96.5,91C 97.5692,87.2264 98.2358,83.393 98.5,79.5C 100.508,76.2105 102.175,72.5439 103.5,68.5C 104.192,69.0253 104.692,69.6919 105,70.5C 105.499,66.1794 105.666,61.8461 105.5,57.5C 106.67,55.7215 108.336,54.7215 110.5,54.5C 109.833,48.8333 109.167,43.1667 108.5,37.5C 107.07,37.4208 105.736,37.7542 104.5,38.5C 103.081,37.9953 102.415,36.9953 102.5,35.5C 104.82,32.5155 107.82,30.8489 111.5,30.5 Z"/></g>
<g><path style="opacity:1" fill="#554ad8" d="M 95.5,52.5 C 91.768,65.4555 87.4346,78.1222 82.5,90.5C 82.6199,88.2655 82.2865,86.0989 81.5,84C 82.6345,83.6841 83.6345,82.8507 84.5,81.5C 85.71,78.8072 85.71,76.1405 84.5,73.5C 85.9802,71.7801 87.3135,69.9468 88.5,68C 87.8333,67 87.1667,66 86.5,65C 87.1267,61.9006 87.1267,58.7339 86.5,55.5C 87.5,55.5 88.5,55.5 89.5,55.5C 89.5,56.5 89.5,57.5 89.5,58.5C 90.5,58.5 91.5,58.5 92.5,58.5C 92.5,56.5 92.5,54.5 92.5,52.5C 93.5,52.5 94.5,52.5 95.5,52.5 Z"/></g>
<g><path style="opacity:1" fill="#5449dd" d="M 47.5,43.5 C 46.1185,47.4698 44.6185,51.4698 43,55.5C 41.2316,65.7894 44.7316,73.6227 53.5,79C 46.5,79.6667 39.5,79.6667 32.5,79C 27.5887,77.3842 23.5887,74.5508 20.5,70.5C 22.672,70.8368 24.5054,71.8368 26,73.5C 27.8881,72.2226 29.8881,71.2226 32,70.5C 32.2995,73.0155 31.1329,74.6822 28.5,75.5C 31.5,76.8333 34.5,76.8333 37.5,75.5C 35.5657,72.314 34.2323,68.9807 33.5,65.5C 34.5,65.5 35.5,65.5 36.5,65.5C 36.1459,68.4206 37.1459,70.7539 39.5,72.5C 40.7926,69.7936 40.4593,67.2936 38.5,65C 39.3881,63.7803 40.0548,62.4469 40.5,61C 38.8658,57.7474 38.1992,54.2474 38.5,50.5C 43.0308,51.1139 45.1975,49.1139 45,44.5C 45.6708,43.7476 46.5041,43.4142 47.5,43.5 Z"/></g>
<g><path style="opacity:1" fill="#6154cc" d="M 105.5,57.5 C 105.666,61.8461 105.499,66.1794 105,70.5C 104.692,69.6919 104.192,69.0253 103.5,68.5C 102.175,72.5439 100.508,76.2105 98.5,79.5C 100.061,71.8209 102.394,64.4876 105.5,57.5 Z"/></g>
<g><path style="opacity:1" fill="#5f56ca" d="M 173.5,68.5 C 175.03,70.9411 177.363,72.1078 180.5,72C 179.669,75.0216 181.002,76.5216 184.5,76.5C 185.694,77.2719 186.694,78.2719 187.5,79.5C 182.142,78.3143 177.642,75.6477 174,71.5C 173.517,70.552 173.351,69.552 173.5,68.5 Z"/></g>
<g><path style="opacity:1" fill="#8d87bd" d="M 183.5,87.5 C 186.64,86.3592 189.973,86.1925 193.5,87C 192.934,87.9947 192.267,88.828 191.5,89.5C 189.365,87.631 186.698,86.9644 183.5,87.5 Z"/></g>
<g><path style="opacity:1" fill="#5d51ce" d="M 98.5,79.5 C 98.2358,83.393 97.5692,87.2264 96.5,91C 96.6448,92.2259 96.9781,93.3926 97.5,94.5C 96.7261,95.7112 95.8928,95.7112 95,94.5C 94.3127,100.204 94.4793,105.87 95.5,111.5C 94.207,110.158 93.3736,108.491 93,106.5C 92.1622,96.8661 93.9956,87.8661 98.5,79.5 Z"/></g>
<g><path style="opacity:1" fill="#5649dc" d="M 183.5,87.5 C 186.698,86.9644 189.365,87.631 191.5,89.5C 189.917,93.0686 188.417,96.7353 187,100.5C 186.306,104.554 186.473,108.554 187.5,112.5C 187.912,114.973 186.912,116.306 184.5,116.5C 186.857,113.445 185.857,111.778 181.5,111.5C 181.337,109.143 181.503,106.81 182,104.5C 182.17,106.715 182.837,108.715 184,110.5C 184.167,109.167 184.333,107.833 184.5,106.5C 183.95,101.855 182.617,97.522 180.5,93.5C 178.234,93.8588 176.401,93.1922 175,91.5C 173.166,92.4954 171.999,93.9954 171.5,96C 173.588,100.215 172.588,101.715 168.5,100.5C 168.5,99.5 168.5,98.5 168.5,97.5C 168.751,95.8297 169.418,94.3297 170.5,93C 174.39,90.0535 178.723,88.2202 183.5,87.5 Z"/></g>
<g><path style="opacity:1" fill="#6357ca" d="M 159.5,83.5 C 157.308,89.9691 154.975,96.3024 152.5,102.5C 152.917,99.9208 152.25,97.7542 150.5,96C 151.793,95.51 153.127,95.3433 154.5,95.5C 154.814,92.0534 155.648,88.7201 157,85.5C 157.417,84.244 158.25,83.5774 159.5,83.5 Z"/></g>
<g><path style="opacity:1" fill="#5c50d5" d="M 217.5,74.5 C 217.508,78.6358 216.508,82.4691 214.5,86C 216.662,88.1035 216.829,90.2701 215,92.5C 214.667,91.1667 214.333,89.8333 214,88.5C 212.581,90.3359 211.414,92.3359 210.5,94.5C 211.5,94.5 212.5,94.5 213.5,94.5C 212.408,97.7032 210.241,99.7032 207,100.5C 207.195,102.126 207.195,103.793 207,105.5C 205.185,106.244 203.352,106.911 201.5,107.5C 207.638,96.8902 212.972,85.8902 217.5,74.5 Z"/></g>
<g><path style="opacity:1" fill="#5045e5" d="M 184.5,116.5 C 181.436,116.072 178.436,115.406 175.5,114.5C 173.167,112.833 171.167,110.833 169.5,108.5C 168.908,105.873 168.575,103.206 168.5,100.5C 172.588,101.715 173.588,100.215 171.5,96C 171.999,93.9954 173.166,92.4954 175,91.5C 176.401,93.1922 178.234,93.8588 180.5,93.5C 182.617,97.522 183.95,101.855 184.5,106.5C 184.333,107.833 184.167,109.167 184,110.5C 182.837,108.715 182.17,106.715 182,104.5C 181.503,106.81 181.337,109.143 181.5,111.5C 185.857,111.778 186.857,113.445 184.5,116.5 Z"/></g>
<g><path style="opacity:1" fill="#695dc8" d="M 57.5,90.5 C 56.6129,96.1454 56.4462,101.812 57,107.5C 58.8383,110.807 61.005,113.807 63.5,116.5C 59.064,114.561 56.2306,111.228 55,106.5C 53.9353,100.75 54.7686,95.4165 57.5,90.5 Z"/></g>
<g><path style="opacity:1" fill="#5e51d6" d="M 138.5,68.5 C 136.781,77.5895 134.781,86.5895 132.5,95.5C 133.675,95.281 134.675,95.6143 135.5,96.5C 133.565,97.0678 132.232,98.2345 131.5,100C 132.322,102.434 132.656,104.934 132.5,107.5C 133.5,107.5 134.5,107.5 135.5,107.5C 135.343,108.873 135.51,110.207 136,111.5C 136.333,110.833 136.667,110.167 137,109.5C 137.333,111.167 137.667,112.833 138,114.5C 139.751,115.809 141.251,115.475 142.5,113.5C 147.865,116.639 153.532,117.306 159.5,115.5C 158.486,116.674 157.153,117.34 155.5,117.5C 150.146,117.431 144.813,117.098 139.5,116.5C 133.289,113.256 129.955,108.089 129.5,101C 131.623,89.8148 134.623,78.9815 138.5,68.5 Z"/></g>
<g><path style="opacity:1" fill="#6e63c1" d="M 168.5,97.5 C 168.5,98.5 168.5,99.5 168.5,100.5C 168.575,103.206 168.908,105.873 169.5,108.5C 167.098,110.909 164.431,112.909 161.5,114.5C 161.218,113.222 160.551,112.222 159.5,111.5C 161.781,110.661 164.115,109.661 166.5,108.5C 167.167,104.687 167.834,101.021 168.5,97.5 Z"/></g>
<g><path style="opacity:1" fill="#554bcf" d="M 114.5,108.5 C 114.264,111.609 114.597,114.609 115.5,117.5C 112.713,118.477 109.713,118.81 106.5,118.5C 101.538,118.205 97.8716,115.872 95.5,111.5C 96.675,111.281 97.675,111.614 98.5,112.5C 100.474,116.17 103.474,117.337 107.5,116C 106.5,115.167 105.5,114.333 104.5,113.5C 105,113.167 105.5,112.833 106,112.5C 108.047,113.609 110.213,114.276 112.5,114.5C 112.054,111.99 112.72,109.99 114.5,108.5 Z"/></g>
<g><path style="opacity:1" fill="#6258ca" d="M 201.5,107.5 C 198.791,113.598 194.124,116.931 187.5,117.5C 194.134,118.497 200.8,118.83 207.5,118.5C 200.011,119.656 192.345,119.822 184.5,119C 181.017,118.235 178.017,116.735 175.5,114.5C 178.436,115.406 181.436,116.072 184.5,116.5C 186.912,116.306 187.912,114.973 187.5,112.5C 189.921,114.891 192.588,115.058 195.5,113C 197.37,110.96 199.37,109.127 201.5,107.5 Z"/></g>
<g><path style="opacity:1" fill="#5c4fc3" d="M 77.5,105.5 C 76.4442,109.529 76.4442,113.529 77.5,117.5C 75.5,117.833 73.5,118.167 71.5,118.5C 68.4733,118.713 65.8066,118.047 63.5,116.5C 67.2396,116.241 70.9062,116.574 74.5,117.5C 74.9734,113.213 75.9734,109.213 77.5,105.5 Z"/></g>
<g><path style="opacity:1" fill="#6056bd" d="M 139.5,116.5 C 144.813,117.098 150.146,117.431 155.5,117.5C 151.019,118.648 146.352,118.815 141.5,118C 140.584,117.722 139.918,117.222 139.5,116.5 Z"/></g>
<g><path style="opacity:1" fill="#b2aff3" d="M 115.5,117.5 C 116.043,117.56 116.376,117.893 116.5,118.5C 113.02,119.806 109.687,119.806 106.5,118.5C 109.713,118.81 112.713,118.477 115.5,117.5 Z"/></g>
</svg>
